<?xml version="1.0" encoding="UTF-8" standalone="no"?>
<svg
   xmlns:dc="http://purl.org/dc/elements/1.1/"
   xmlns:cc="http://creativecommons.org/ns#"
   xmlns:rdf="http://www.w3.org/1999/02/22-rdf-syntax-ns#"
   xmlns:svg="http://www.w3.org/2000/svg"
   xmlns="http://www.w3.org/2000/svg"
   xmlns:sodipodi="http://sodipodi.sourceforge.net/DTD/sodipodi-0.dtd"
   xmlns:inkscape="http://www.inkscape.org/namespaces/inkscape"
   aria-hidden="true"
   focusable="false"
   data-prefix="fas"
   data-icon="palette"
   class="svg-inline--fa fa-palette fa-w-16"
   role="img"
   viewBox="0 0 512 512"
   version="1.1"
   id="svg3725"
   sodipodi:docname="palette-solid-black.svg"
   inkscape:version="0.92.4 (5da689c313, 2019-01-14)">
  <metadata
     id="metadata3731">
    <rdf:RDF>
      <cc:Work
         rdf:about="">
        <dc:format>image/svg+xml</dc:format>
        <dc:type
           rdf:resource="http://purl.org/dc/dcmitype/StillImage" />
        <dc:title />
      </cc:Work>
    </rdf:RDF>
  </metadata>
  <defs
     id="defs3729" />
  <sodipodi:namedview
     pagecolor="#ffffff"
     bordercolor="#666666"
     borderopacity="1"
     objecttolerance="10"
     gridtolerance="10"
     guidetolerance="10"
     inkscape:pageopacity="0"
     inkscape:pageshadow="2"
     inkscape:window-width="1920"
     inkscape:window-height="1000"
     id="namedview3727"
     showgrid="false"
     inkscape:zoom="1.5208438"
     inkscape:cx="256"
     inkscape:cy="256"
     inkscape:window-x="-11"
     inkscape:window-y="-11"
     inkscape:window-maximized="1"
     inkscape:current-layer="layer2" />
  <rect
     style="opacity:0.13999999;fill:none;stroke:#ff0000"
     id="rect3751"
     width="512.65894"
     height="512.65894"
     x="0.65752971"
     y="0.65752971" />
  <rect
     style="opacity:0;fill:none;stroke:#ff0000"
     id="rect3753"
     width="83.685974"
     height="56.669239"
     x="3.2933085"
     y="81.707726" />
  <rect
     style="opacity:0.01000001;fill:#ff0000;stroke:#ff0000"
     id="rect4562"
     width="54.033463"
     height="71.824966"
     x="23.720592"
     y="52.714157" />
  <g
     inkscape:groupmode="layer"
     id="layer2"
     inkscape:label="main">
    <path
       d="m 204.95753,5.6575297 c -99.4,19.4000003 -179.5,99.3000003 -199.1000003,198.4000003 -36.9999997,187 131.7000003,326.4 258.8000003,306.7 41.2,-6.4 61.4,-54.6 42.5,-91.7 -23.1,-45.4 9.9,-98.4 60.9,-98.4 h 79.7 c 35.8,0 64.8,-29.6 64.9,-65.3 -0.5,-157.6 -143.9,-281.6 -307.7,-249.7000003 z m -108.3,315.0000003 c -17.7,0 -32,-14.3 -32,-32 0,-17.7 14.3,-32 32,-32 17.7,0 32,14.3 32,32 0,17.7 -14.3,32 -32,32 z m 32,-128 c -17.7,0 -32,-14.3 -32,-32 0,-17.7 14.3,-32 32,-32 17.7,0 32,14.3 32,32 0,17.7 -14.3,32 -32,32 z m 128,-64 c -17.7,0 -32,-14.3 -32,-32 0,-17.7 14.3,-32 32,-32 17.7,0 32,14.3 32,32 0,17.7 -14.3,32 -32,32 z m 128,64 c -17.7,0 -32,-14.3 -32,-32 0,-17.7 14.3,-32 32,-32 17.7,0 32,14.3 32,32 0,17.7 -14.3,32 -32,32 z"
       id="path3723"
       style="fill:#1561ad;fill-opacity:1"
       inkscape:connector-curvature="0" />
    <ellipse
       style="opacity:1;fill:#000000;fill-opacity:1;stroke:none;stroke-width:12.85380173"
       id="path860"
       cx="422.46283"
       cy="425.53488"
       rx="87.122681"
       ry="84.492569" />
  </g>
</svg>
